<svg id="Warstwa_1" data-name="Warstwa 1" xmlns="http://www.w3.org/2000/svg" viewBox="0 0 525.4 621.52"><defs><style>.cls-1,.cls-2{fill:#974949;}.cls-1{opacity:0.42;}</style></defs><path class="cls-1" d="M192.49,162.4c4-2.49,5.88-6.35,7.39-9.63,4-8.57,1.74-12.08,4.12-16.77,2.15-4.23,6.7-6.81,27.26-10.66,14.71-2.75,23.53-4.4,38.64-5.14a300.9,300.9,0,0,1,34.42.39C371.81,125.57,416.8,148,416.8,148c15.47,7.72,52.36,26.62,81.1,65.14,8.05,10.8,13.92,22.5,25.64,45.9,12.68,25.29,15.3,35.14,11,41.8-4.73,7.36-14.18,5-18.46,13.18-3.86,7.34.27,15.94,3.95,25.32,6.9,17.57-6.65-10.2,13,47.64s30.3,77.15,25,81c-7.51,5.45-37.75-26.55-44-21-1.32,1.17-.48,3.06,1.37,15.73,2.42,16.55,1.25,15.14,3,23.73,2.8,14,5.59,16.1,4.66,23.54s-4.49,12.28-6.64,15.43c-9.05,13.28-14.3,28.78-21.56,43.12-18.08,35.7-27.12,53.55-30.1,63.11-1.75,5.6-4.86,16.46-8.7,16.34-2.17-.07-3.24-3.59-6.1-10.22-8.07-18.71-16.25-29.42-20.7-39.56-.85-1.93-1.32-2.78-2.24-4.48-1.82-3.34-2.73-5-3.35-5.12-3-.55-7.69,14.86-14.19,30.7C404,632.43,400.88,640.1,396,647c-8.56,12.08-17.86,15.31-34.19,24.67-20.7,11.86-39.34,26.15-76.61,54.73-7.51,5.75-22.34,17.29-25.2,14.6-.82-.77-.39-2.46-.25-3,3.38-13.46,2-28,6.46-41.14,2.39-7.08,4.54-26.65,8.83-65.81,2.7-24.54,2.14-26.42,4.49-37,2.17-9.81,4.56-16.88,2.63-17.93-1.72-1-6.15,3.34-16.35,16.08-15.7,19.63-28.79,34.63-55,64.62-1.41,1.62-3.42,3.87-5.15,3.39-5.44-1.51.61-27.82.41-68.8C206,578.57,208.61,565.5,206,553a21.36,21.36,0,0,1,.05-11c1.8-6.08,6.11-9,10.63-13.41,5.54-5.43,5.52-7.41,13.45-18.72,15.58-22.26,28.36-32.78,27-34.29S242.72,483.47,228,494c-11.45,8.21-23.77,15.23-34.68,24.14-3.34,2.72-5.48,4.6-6.47,4-3.64-2.39,15.5-34.49,24.93-62,3.55-10.35,3.65-14,7.91-21.49,2-3.56,4.15-6.52,4.61-11.21.53-5.37-1.45-9.66-3.29-13.32-9.72-19.3-15.43-30.63-28-35.87a65.62,65.62,0,0,0-10.81-3.16c-9.94-2.19-14.06-1.18-20.18-4.22a29,29,0,0,1-8.44-6.59s-11.67-12.15-35.86-29C97.37,321.09,91.83,328.63,70,315c-8.64-5.4-21.85-13.65-30.47-28.38-9.79-16.74-3.81-25-3.3-83.61.26-29.51-1.15-40,6.77-46,6.89-5.19,13-1.06,39.25,2.49,38.56,5.24,50.05-.32,74.9,4,1.46.25,8.62.52,22.95,1.06C184.72,164.68,188.63,164.77,192.49,162.4Z" transform="translate(-33.96 -119.88)"/><path class="cls-2" d="M377.9,188c-2.17,16.93-30.07,70.18-27.69,154.68.12,4.47.3,7.83,2.77,10.29,17.21,17.13,132.91-22.49,130.94-89.41C482.23,206,395,181.23,392.14,180.46c-2-.54-7.52-2-11.07.79C378.41,183.36,378,186.94,377.9,188Z" transform="translate(-33.96 -119.88)"/><path class="cls-2" d="M230.21,162.66c-1.48,4.21-2.36,4.58-2.11,6.46.06.46.3,1.93.66,3.56s.49,2,.26,2.51c-.44,1.05-1.61,1-2.9,2s-2.21,2.69-2.11,3.43c.64,4.86,49.45,2.9,49.45,2.9h0s-.18-2.05-.26-2.76a13.27,13.27,0,0,0-1.72-4.88,20.63,20.63,0,0,0-4-4.88c-2.91-3.08-2.23-3.12-7-9-4.18-5.13-3.84-4.05-5.41-6.33-3.93-5.72-4-9.55-6.46-9.89a3.4,3.4,0,0,0-3.56,2.24c-.46,2.5,5.33,4.93,4.75,6.33-.33.8-2.49.76-3.43.66-1.19-.13-1.27-.47-2.77-.66a13.18,13.18,0,0,0-2.9,0,17.6,17.6,0,0,0-2.38.4,25.43,25.43,0,0,0-3.16,1.05c-1.49.56-2.23.84-2.37.93C231.4,157.61,231.51,159,230.21,162.66Z" transform="translate(-33.96 -119.88)"/></svg>